# xmcd
#
# Track frame offsets:
#	150
#	14040
#	26915
#	38980
#	54558
#	65835
#	77480
#	88768
#	99743
#	115718
#	130653
#	147170
#	159553
#
# Disc length: 2292 seconds
#
# Revision: 0
# Processed by: cddbd v1.4PL0 Copyright (c) Steve Scherf et al.
#
# Submitted via: MusicManager v6.0.0.0
#
DISCID=b208f20d
DTITLE=Del McCoury - Parmley and McCoury
DYEAR=1900
DGENRE=country
TTITLE0=Smoke Along the Track
TTITLE1=Evil Hearted Woman
TTITLE2=Home Run Man
TTITLE3=I Hear a Sweet Voice Calling
TTITLE4=Right Before My Eyes
TTITLE5=I'm Going Back to Old Kentucky
TTITLE6=Down the Road
TTITLE7=Roll On Buddy
TTITLE8=I'll Drink No More Wine
TTITLE9=We'll Meet Again Sweetheart
TTITLE10=Travelin' This Lonesome Road
TTITLE11=Me and the Jukebox
TTITLE12=Swing Low, Sweet Chariot
EXTD=
EXTT0=
EXTT1=
EXTT2=
EXTT3=
EXTT4=
EXTT5=
EXTT6=
EXTT7=
EXTT8=
EXTT9=
EXTT10=
EXTT11=
EXTT12=
PLAYORDER=
